<svg width="56" height="49" xmlns="http://www.w3.org/2000/svg" xmlns:xlink="http://www.w3.org/1999/xlink" overflow="hidden"><g transform="translate(-799 -27)"><path d="M839.36 27.0022C839.36 27.0022 838.817 27.6247 838.205 29.391 837.591 31.1573 838.205 32.4023 838.205 32.4023 838.205 32.4023 836.674 31.1573 835.656 30.7393 834.633 30.3258 832.897 29.3932 832.897 29.391L832.897 29.391C833.539 30.2994 834.086 31.2739 834.529 32.2989 834.988 33.3569 836.825 34.3291 838.099 34.901 836.968 35.5675 835.695 36.4869 834.575 37.3184 834.499 37.369 830.155 40.5408 830.094 40.5826 828.516 41.579 825.093 43.6467 825.093 43.6467 825.093 43.6467 817.698 44.8411 815.65 45.2722 813.067 45.8177 809.821 47.0209 807.667 47.2299 805.514 47.4388 802.859 49.6626 802.043 50.7316 801.548 51.3761 802.476 51.5037 803.284 51.5037 803.812 51.5037 804.288 51.4487 804.288 51.4487L804.288 51.4487C804.288 51.4487 803.47 53.8551 804.288 55.5246 805.105 57.1985 806.126 60.6849 805.717 61.0192 805.308 61.3492 802.99 65.1963 801.905 67.1144 800.82 69.0346 800 72.2241 800 72.2241L801.63 72.9763C801.63 72.9763 802.653 68.1416 803.672 66.8218 804.692 65.4999 806.327 63.6742 806.327 63.6742L806.327 63.6742C806.327 63.6742 804.898 68.3682 804.491 69.9431 804.082 71.5202 803.265 74.5381 803.265 74.5381L804.898 74.9978C804.898 74.9978 805.715 71.4806 806.532 69.9431 807.347 68.4034 808.982 65.9662 810.104 64.9016 811.226 63.8348 812.567 61.6131 813.326 60.3374 814.083 59.0572 816.874 58.4259 819.46 58.3269 822.046 58.2279 829.753 55.6808 830.721 54.6492 831.697 55.0341 832.641 55.617 833.813 56.3077 835.725 57.4317 837.887 59.3497 839.489 59.9942 841.092 60.6343 842.971 61.7737 842.971 61.7737L844.008 60.5177 835.725 55.298 846.259 58.1114 846.925 56.6046C846.925 56.6046 840.298 54.0311 838.231 53.1534 836.897 52.5837 835.381 51.7985 834.399 51.2684 834.092 49.755 834.802 47.5664 835.316 45.8155 835.896 43.8403 837.197 41.5768 837.39 41.2535 838.22 40.719 839.835 40.477 840.804 40.4682 840.823 40.4682 840.843 40.4682 840.862 40.4682 842.346 40.4682 843.758 41.1545 845.144 41.1545 845.624 41.1545 846.099 41.0731 846.573 40.851 848 40.1867 845.557 37.8991 844.687 37.2788 843.939 36.7465 842.763 34.5227 841.154 34.0454 840.919 32.9918 840.545 31.3442 840.339 30.5304 840.023 29.2854 839.36 27.0022 839.36 27.0022Z" fill="#BD592F" fill-rule="evenodd"/><path d="M853.683 41C853.683 41 830.627 47.1179 829.422 47.3782 829.263 47.3596 829.105 47.3526 828.951 47.3526 826.774 47.3526 825 48.9582 825 48.9582 825 48.9582 825.473 49 826.119 49 827.236 49 828.872 48.8769 829.459 48.2077 832.047 47.2643 853.998 41.8922 853.998 41.8922L853.683 41Z" fill="#BD592F" fill-rule="evenodd"/><path d="M852.84 48.0025C852.84 48.0025 828.902 49.7238 827.66 49.7508 827.196 49.6008 826.73 49.5393 826.282 49.5393 824.496 49.5393 823 50.5033 823 50.5033 823 50.5033 824.662 51 826.049 51 826.659 51 827.218 50.9016 827.555 50.6238 830.289 50.1639 852.998 48.9934 852.998 48.9934L852.84 48.0025Z" fill="#BD592F" fill-rule="evenodd"/></g></svg>